  0
SECTION
  2
HEADER
  9
$ACADVER
  1
AC1009
  9
$INSBASE
 10
0.0
 20
0.0
 30
0.0
  9
$EXTMIN
 10
0.0
 20
0.0
 30
0.0
  9
$EXTMAX
 10
0.0
 20
0.0
 30
0.0
  0
ENDSEC
  0
SECTION
  2
TABLES
  0
TABLE
  2
VPORT
 70
0
  0
ENDTAB
  0
TABLE
  2
LTYPE
 70
1
  0
LTYPE
  2
CONTINUOUS
 70
0
  3
Solid line
 72
65
 73
0
 40
0.0
  0
ENDTAB
  0
TABLE
  2
LAYER
 70
1
  0
LAYER
  2
0
 70
64
 62
7
  6
continuous
  0
ENDTAB
  0
TABLE
  2
STYLE
 70
1
  0
STYLE
  2
STANDARD
 70
0
 40
0
 41
1.0
 50
0.0
 71
0
 42
1
 3
ARIAL.TTF
 4

  0
ENDTAB
  0
TABLE
  2
VIEW
 70
0
  0
ENDTAB
  0
ENDSEC
  0
SECTION
  2
BLOCKS
  0
ENDSEC
  0
SECTION
  2
ENTITIES
  0
POLYLINE
  8
0
 62
0
 70
1
 66
1
 10
0.0
 20
0.0
 30
0.0
  0
VERTEX
  8
0
 10
39.6874858889
 20
-58.5674103111
 30
0.0
  0
VERTEX
  8
0
 10
39.8482114444
 20
-58.4662167111
 30
0.0
  0
VERTEX
  8
0
 10
39.9743083333
 20
-58.4221646444
 30
0.0
  0
VERTEX
  8
0
 10
40.1340771556
 20
-58.3940835333
 30
0.0
  0
VERTEX
  8
0
 10
40.2549190667
 20
-58.3596891111
 30
0.0
  0
VERTEX
  8
0
 10
40.4979406222
 20
-58.2239289333
 30
0.0
  0
VERTEX
  8
0
 10
40.5596513333
 20
-58.1004623556
 30
0.0
  0
VERTEX
  8
0
 10
40.5816928889
 20
-58.0267600222
 30
0.0
  0
VERTEX
  8
0
 10
40.6597950667
 20
-57.9541583556
 30
0.0
  0
VERTEX
  8
0
 10
40.7504250889
 20
-57.7562556667
 30
0.0
  0
VERTEX
  8
0
 10
40.8445292667
 20
-57.7257926
 30
0.0
  0
VERTEX
  8
0
 10
40.8853950444
 20
-57.7751109333
 30
0.0
  0
VERTEX
  8
0
 10
40.9026388222
 20
-57.8208676222
 30
0.0
  0
VERTEX
  8
0
 10
40.9078881556
 20
-57.8972313111
 30
0.0
  0
VERTEX
  8
0
 10
40.8958937111
 20
-57.9654528889
 30
0.0
  0
VERTEX
  8
0
 10
40.8811052667
 20
-58.0222388222
 30
0.0
  0
VERTEX
  8
0
 10
40.8537861556
 20
-58.3128938444
 30
0.0
  0
VERTEX
  8
0
 10
40.9455704667
 20
-58.3183407333
 30
0.0
  0
VERTEX
  8
0
 10
41.0269210222
 20
-58.4263810444
 30
0.0
  0
VERTEX
  8
0
 10
41.0479748
 20
-58.5258276889
 30
0.0
  0
VERTEX
  8
0
 10
41.1264071778
 20
-58.5518203556
 30
0.0
  0
VERTEX
  8
0
 10
41.2837799333
 20
-58.4831020667
 30
0.0
  0
VERTEX
  8
0
 10
41.2983426
 20
-58.1659661333
 30
0.0
  0
VERTEX
  8
0
 10
41.3442206444
 20
-57.7058705333
 30
0.0
  0
VERTEX
  8
0
 10
41.3109776889
 20
-57.5864143333
 30
0.0
  0
VERTEX
  8
0
 10
41.3760581333
 20
-57.3815294667
 30
0.0
  0
VERTEX
  8
0
 10
41.4058890222
 20
-57.3010707333
 30
0.0
  0
VERTEX
  8
0
 10
41.4577388889
 20
-57.1586642222
 30
0.0
  0
VERTEX
  8
0
 10
41.4948652222
 20
-57.0678761556
 30
0.0
  0
VERTEX
  8
0
 10
41.5418044222
 20
-56.9750165778
 30
0.0
  0
VERTEX
  8
0
 10
41.6863784
 20
-56.8297172889
 30
0.0
  0
VERTEX
  8
0
 10
41.8154499111
 20
-56.7343910889
 30
0.0
  0
VERTEX
  8
0
 10
41.9256943778
 20
-56.6450564667
 30
0.0
  0
VERTEX
  8
0
 10
42.1674826222
 20
-56.4026247556
 30
0.0
  0
VERTEX
  8
0
 10
42.2448792444
 20
-56.2988121333
 30
0.0
  0
VERTEX
  8
0
 10
42.2908814667
 20
-56.1798131333
 30
0.0
  0
VERTEX
  8
0
 10
42.2835154667
 20
-56.061356
 30
0.0
  0
VERTEX
  8
0
 10
42.2979370222
 20
-55.9577663333
 30
0.0
  0
VERTEX
  8
0
 10
42.3250021333
 20
-55.8979436889
 30
0.0
  0
VERTEX
  8
0
 10
42.3441932444
 20
-55.8610826444
 30
0.0
  0
VERTEX
  8
0
 10
42.3775886
 20
-55.7964114222
 30
0.0
  0
VERTEX
  8
0
 10
42.4200715111
 20
-55.7176008667
 30
0.0
  0
VERTEX
  8
0
 10
42.5200797778
 20
-55.5652347333
 30
0.0
  0
VERTEX
  8
0
 10
42.6376140444
 20
-55.3986361333
 30
0.0
  0
VERTEX
  8
0
 10
42.9449850889
 20
-54.7759974667
 30
0.0
  0
VERTEX
  8
0
 10
42.9819110444
 20
-54.6911558222
 30
0.0
  0
VERTEX
  8
0
 10
43.0710791556
 20
-54.4892879111
 30
0.0
  0
VERTEX
  8
0
 10
43.1901543556
 20
-54.3520517111
 30
0.0
  0
VERTEX
  8
0
 10
43.4388598667
 20
-54.0768850444
 30
0.0
  0
VERTEX
  8
0
 10
43.5899475333
 20
-53.8705975333
 30
0.0
  0
VERTEX
  8
0
 10
43.8632910444
 20
-53.6593457333
 30
0.0
  0
VERTEX
  8
0
 10
44.0150955556
 20
-53.461031
 30
0.0
  0
VERTEX
  8
0
 10
44.0744412444
 20
-53.1221244444
 30
0.0
  0
VERTEX
  8
0
 10
44.0891450222
 20
-52.9697583111
 30
0.0
  0
VERTEX
  8
0
 10
44.1599856222
 20
-52.7858679556
 30
0.0
  0
VERTEX
  8
0
 10
44.2092503333
 20
-52.5840423778
 30
0.0
  0
VERTEX
  8
0
 10
44.0483526222
 20
-52.4442012667
 30
0.0
  0
VERTEX
  8
0
 10
43.9927379111
 20
-52.4100495556
 30
0.0
  0
VERTEX
  8
0
 10
43.9181748
 20
-52.1598736667
 30
0.0
  0
VERTEX
  8
0
 10
43.8929159111
 20
-52.0297353556
 30
0.0
  0
VERTEX
  8
0
 10
43.8696890222
 20
-51.9813398889
 30
0.0
  0
VERTEX
  8
0
 10
43.8515985778
 20
-51.9443885333
 30
0.0
  0
VERTEX
  8
0
 10
43.8322099111
 20
-51.8937268222
 30
0.0
  0
VERTEX
  8
0
 10
43.7352186
 20
-51.7428028444
 30
0.0
  0
VERTEX
  8
0
 10
43.6546244
 20
-51.6716715556
 30
0.0
  0
VERTEX
  8
0
 10
43.4123535556
 20
-51.4799213111
 30
0.0
  0
VERTEX
  8
0
 10
43.3427716667
 20
-51.4638346444
 30
0.0
  0
VERTEX
  8
0
 10
43.2119136889
 20
-51.4077373333
 30
0.0
  0
VERTEX
  8
0
 10
43.0238012889
 20
-51.2976650222
 30
0.0
  0
VERTEX
  8
0
 10
42.8591895333
 20
-51.2592376444
 30
0.0
  0
VERTEX
  8
0
 10
42.7576290444
 20
-51.2542140889
 30
0.0
  0
VERTEX
  8
0
 10
42.6898308
 20
-51.1846463111
 30
0.0
  0
VERTEX
  8
0
 10
42.5812345111
 20
-51.0945045333
 30
0.0
  0
VERTEX
  8
0
 10
42.5125388
 20
-51.0551006667
 30
0.0
  0
VERTEX
  8
0
 10
42.3612705111
 20
-51.0455051111
 30
0.0
  0
VERTEX
  8
0
 10
42.3092569556
 20
-51.0677442222
 30
0.0
  0
VERTEX
  8
0
 10
41.9952480444
 20
-51.2358978667
 30
0.0
  0
VERTEX
  8
0
 10
41.8900468889
 20
-51.3612384
 30
0.0
  0
VERTEX
  8
0
 10
41.8260784
 20
-51.4564122
 30
0.0
  0
VERTEX
  8
0
 10
41.7016240444
 20
-51.5196186889
 30
0.0
  0
VERTEX
  8
0
 10
41.6333657778
 20
-51.5561297778
 30
0.0
  0
VERTEX
  8
0
 10
41.3768765778
 20
-51.5509368889
 30
0.0
  0
VERTEX
  8
0
 10
41.2292658889
 20
-51.587908
 30
0.0
  0
VERTEX
  8
0
 10
41.1220299111
 20
-51.6975061778
 30
0.0
  0
VERTEX
  8
0
 10
41.0251232667
 20
-51.7860138889
 30
0.0
  0
VERTEX
  8
0
 10
40.7750884889
 20
-51.9457206222
 30
0.0
  0
VERTEX
  8
0
 10
40.4654342667
 20
-52.1290691111
 30
0.0
  0
VERTEX
  8
0
 10
40.4077057111
 20
-52.3182144444
 30
0.0
  0
VERTEX
  8
0
 10
40.3504625778
 20
-52.5222582889
 30
0.0
  0
VERTEX
  8
0
 10
40.2308370444
 20
-52.5034058444
 30
0.0
  0
VERTEX
  8
0
 10
40.1229152667
 20
-52.4810820667
 30
0.0
  0
VERTEX
  8
0
 10
40.0060752667
 20
-52.5201670222
 30
0.0
  0
VERTEX
  8
0
 10
39.9669620889
 20
-52.5592519778
 30
0.0
  0
VERTEX
  8
0
 10
39.9927289778
 20
-52.5868815333
 30
0.0
  0
VERTEX
  8
0
 10
40.0670493778
 20
-52.6392252889
 30
0.0
  0
VERTEX
  8
0
 10
40.1708704667
 20
-52.7506494444
 30
0.0
  0
VERTEX
  8
0
 10
40.0772884
 20
-52.8522889556
 30
0.0
  0
VERTEX
  8
0
 10
40.0448328444
 20
-52.9258445333
 30
0.0
  0
VERTEX
  8
0
 10
40.0563757333
 20
-53.0163362667
 30
0.0
  0
VERTEX
  8
0
 10
40.0762724
 20
-53.1319260222
 30
0.0
  0
VERTEX
  8
0
 10
40.1126226222
 20
-53.3164683111
 30
0.0
  0
VERTEX
  8
0
 10
40.1707660444
 20
-53.4549039556
 30
0.0
  0
VERTEX
  8
0
 10
40.2223619111
 20
-53.4773970667
 30
0.0
  0
VERTEX
  8
0
 10
40.2766642889
 20
-53.5046879556
 30
0.0
  0
VERTEX
  8
0
 10
40.2887434
 20
-53.6772696667
 30
0.0
  0
VERTEX
  8
0
 10
40.3080474
 20
-53.8119997333
 30
0.0
  0
VERTEX
  8
0
 10
40.4026228889
 20
-53.9402189333
 30
0.0
  0
VERTEX
  8
0
 10
40.4513993556
 20
-53.9836218889
 30
0.0
  0
VERTEX
  8
0
 10
40.4691229111
 20
-54.0208187778
 30
0.0
  0
VERTEX
  8
0
 10
40.4250652
 20
-54.0657090444
 30
0.0
  0
VERTEX
  8
0
 10
40.3810074889
 20
-54.1212955333
 30
0.0
  0
VERTEX
  8
0
 10
40.4062099333
 20
-54.1661547556
 30
0.0
  0
VERTEX
  8
0
 10
40.4653496
 20
-54.3066901333
 30
0.0
  0
VERTEX
  8
0
 10
40.5433614667
 20
-54.4610826222
 30
0.0
  0
VERTEX
  8
0
 10
40.6333536667
 20
-54.60492
 30
0.0
  0
VERTEX
  8
0
 10
40.6486783333
 20
-54.6509673778
 30
0.0
  0
VERTEX
  8
0
 10
40.6694498889
 20
-54.7936250667
 30
0.0
  0
VERTEX
  8
0
 10
40.6813314444
 20
-54.9216241333
 30
0.0
  0
VERTEX
  8
0
 10
40.7140212444
 20
-55.0485281778
 30
0.0
  0
VERTEX
  8
0
 10
40.6841113333
 20
-55.1659608444
 30
0.0
  0
VERTEX
  8
0
 10
40.5670314444
 20
-55.3527157556
 30
0.0
  0
VERTEX
  8
0
 10
40.4728651778
 20
-55.4688558444
 30
0.0
  0
VERTEX
  8
0
 10
40.3494465778
 20
-55.4671625111
 30
0.0
  0
VERTEX
  8
0
 10
40.3077510667
 20
-55.3552077778
 30
0.0
  0
VERTEX
  8
0
 10
40.1899966667
 20
-55.3933388222
 30
0.0
  0
VERTEX
  8
0
 10
39.9709894
 20
-55.5459561333
 30
0.0
  0
VERTEX
  8
0
 10
39.81577
 20
-55.5811972222
 30
0.0
  0
VERTEX
  8
0
 10
39.7619530444
 20
-55.5070038222
 30
0.0
  0
VERTEX
  8
0
 10
39.6749862667
 20
-55.3946793778
 30
0.0
  0
VERTEX
  8
0
 10
39.5517934444
 20
-55.1681000889
 30
0.0
  0
VERTEX
  8
0
 10
39.4475857111
 20
-54.7670510222
 30
0.0
  0
VERTEX
  8
0
 10
39.3722606
 20
-54.6851162667
 30
0.0
  0
VERTEX
  8
0
 10
39.2922872889
 20
-54.5863187333
 30
0.0
  0
VERTEX
  8
0
 10
39.2387638444
 20
-54.4776406
 30
0.0
  0
VERTEX
  8
0
 10
39.2007033556
 20
-54.3872137778
 30
0.0
  0
VERTEX
  8
0
 10
39.2563716889
 20
-54.1907871111
 30
0.0
  0
VERTEX
  8
0
 10
39.2881978889
 20
-54.1266634
 30
0.0
  0
VERTEX
  8
0
 10
39.3106627778
 20
-54.0838615778
 30
0.0
  0
VERTEX
  8
0
 10
39.324915
 20
-53.9765804444
 30
0.0
  0
VERTEX
  8
0
 10
39.3147267778
 20
-53.8313996889
 30
0.0
  0
VERTEX
  8
0
 10
39.3014058889
 20
-53.7210649111
 30
0.0
  0
VERTEX
  8
0
 10
39.2770501111
 20
-53.5568821333
 30
0.0
  0
VERTEX
  8
0
 10
39.2640396667
 20
-53.4347307111
 30
0.0
  0
VERTEX
  8
0
 10
39.3135386222
 20
-53.3381824889
 30
0.0
  0
VERTEX
  8
0
 10
39.3630347556
 20
-53.2416342667
 30
0.0
  0
VERTEX
  8
0
 10
39.3453112
 20
-53.119147
 30
0.0
  0
VERTEX
  8
0
 10
39.3612285333
 20
-52.8078530667
 30
0.0
  0
VERTEX
  8
0
 10
39.3827338667
 20
-52.7037864444
 30
0.0
  0
VERTEX
  8
0
 10
39.5193915111
 20
-52.3812967556
 30
0.0
  0
VERTEX
  8
0
 10
39.5559900889
 20
-52.265707
 30
0.0
  0
VERTEX
  8
0
 10
39.5831116444
 20
-52.1404708889
 30
0.0
  0
VERTEX
  8
0
 10
39.6034034222
 20
-52.0496122667
 30
0.0
  0
VERTEX
  8
0
 10
39.6358307556
 20
-51.9489294889
 30
0.0
  0
VERTEX
  8
0
 10
39.6818866
 20
-51.8294112
 30
0.0
  0
VERTEX
  8
0
 10
39.8430242
 20
-51.5293243111
 30
0.0
  0
VERTEX
  8
0
 10
40.3040934667
 20
-51.0403263333
 30
0.0
  0
VERTEX
  8
0
 10
40.3441944222
 20
-51.0152932222
 30
0.0
  0
VERTEX
  8
0
 10
40.5333623333
 20
-50.8899244667
 30
0.0
  0
VERTEX
  8
0
 10
40.6069179111
 20
-50.8427623111
 30
0.0
  0
VERTEX
  8
0
 10
40.7033278444
 20
-50.7840826667
 30
0.0
  0
VERTEX
  8
0
 10
40.7697911778
 20
-50.7630571111
 30
0.0
  0
VERTEX
  8
0
 10
40.8527673333
 20
-50.7420315556
 30
0.0
  0
VERTEX
  8
0
 10
40.9766572444
 20
-50.7094546444
 30
0.0
  0
VERTEX
  8
0
 10
41.1068661111
 20
-50.6576442889
 30
0.0
  0
VERTEX
  8
0
 10
41.2203956444
 20
-50.5982760222
 30
0.0
  0
VERTEX
  8
0
 10
41.3247416667
 20
-50.5371241111
 30
0.0
  0
VERTEX
  8
0
 10
41.4528959556
 20
-50.4668225556
 30
0.0
  0
VERTEX
  8
0
 10
41.6472116
 20
-50.4058202222
 30
0.0
  0
VERTEX
  8
0
 10
41.8048298889
 20
-50.3851897778
 30
0.0
  0
VERTEX
  8
0
 10
42.0720463556
 20
-50.2810582444
 30
0.0
  0
VERTEX
  8
0
 10
42.0833070222
 20
-50.1788373556
 30
0.0
  0
VERTEX
  8
0
 10
41.9999272889
 20
-49.9819337333
 30
0.0
  0
VERTEX
  8
0
 10
41.9677200889
 20
-49.9345514444
 30
0.0
  0
VERTEX
  8
0
 10
42.0766155333
 20
-49.8566298889
 30
0.0
  0
VERTEX
  8
0
 10
42.2316091556
 20
-49.7438482444
 30
0.0
  0
VERTEX
  8
0
 10
42.4404874667
 20
-49.4650691333
 30
0.0
  0
VERTEX
  8
0
 10
42.4833739556
 20
-49.3917506222
 30
0.0
  0
VERTEX
  8
0
 10
42.5456604
 20
-49.2118396
 30
0.0
  0
VERTEX
  8
0
 10
42.5622268444
 20
-49.1365935111
 30
0.0
  0
VERTEX
  8
0
 10
42.5681817333
 20
-48.8581841111
 30
0.0
  0
VERTEX
  8
0
 10
42.5230713333
 20
-48.6036507111
 30
0.0
  0
VERTEX
  8
0
 10
42.5343884444
 20
-48.4775538222
 30
0.0
  0
VERTEX
  8
0
 10
42.4724237333
 20
-48.1097731111
 30
0.0
  0
VERTEX
  8
0
 10
42.3354302444
 20
-47.8077953333
 30
0.0
  0
VERTEX
  8
0
 10
42.2933988889
 20
-47.7073863111
 30
0.0
  0
VERTEX
  8
0
 10
42.2514578444
 20
-47.6117722444
 30
0.0
  0
VERTEX
  8
0
 10
42.1180514
 20
-47.3755832889
 30
0.0
  0
VERTEX
  8
0
 10
42.0375898444
 20
-47.2493198889
 30
0.0
  0
VERTEX
  8
0
 10
41.9664896
 20
-47.1406022444
 30
0.0
  0
VERTEX
  8
0
 10
41.6840246667
 20
-46.9257436444
 30
0.0
  0
VERTEX
  8
0
 10
41.6052141111
 20
-46.8808787778
 30
0.0
  0
VERTEX
  8
0
 10
41.4738650667
 20
-46.8810057778
 30
0.0
  0
VERTEX
  8
0
 10
41.2321784222
 20
-46.9054462222
 30
0.0
  0
VERTEX
  8
0
 10
40.9904946
 20
-46.9379836222
 30
0.0
  0
VERTEX
  8
0
 10
40.8250700444
 20
-46.9638916222
 30
0.0
  0
VERTEX
  8
0
 10
40.7275114667
 20
-46.919007
 30
0.0
  0
VERTEX
  8
0
 10
40.5765
 20
-46.8129478889
 30
0.0
  0
VERTEX
  8
0
 10
40.4924006
 20
-46.7855441111
 30
0.0
  0
VERTEX
  8
0
 10
40.2496810222
 20
-46.8217870889
 30
0.0
  0
VERTEX
  8
0
 10
40.1025698667
 20
-46.9107858667
 30
0.0
  0
VERTEX
  8
0
 10
39.888414
 20
-47.0233614889
 30
0.0
  0
VERTEX
  8
0
 10
39.7675720889
 20
-47.0776892667
 30
0.0
  0
VERTEX
  8
0
 10
39.5193745778
 20
-47.1916026222
 30
0.0
  0
VERTEX
  8
0
 10
39.4475208
 20
-47.2169461778
 30
0.0
  0
VERTEX
  8
0
 10
39.3828185333
 20
-47.4071300889
 30
0.0
  0
VERTEX
  8
0
 10
39.2198972889
 20
-47.7055970222
 30
0.0
  0
VERTEX
  8
0
 10
39.1102172667
 20
-47.8369460667
 30
0.0
  0
VERTEX
  8
0
 10
39.014273
 20
-47.9521266
 30
0.0
  0
VERTEX
  8
0
 10
38.9505698
 20
-48.0326954
 30
0.0
  0
VERTEX
  8
0
 10
38.8923163111
 20
-48.1377752
 30
0.0
  0
VERTEX
  8
0
 10
38.8412143333
 20
-48.2439218
 30
0.0
  0
VERTEX
  8
0
 10
38.7946984667
 20
-48.3069702444
 30
0.0
  0
VERTEX
  8
0
 10
38.7148352222
 20
-48.4725500222
 30
0.0
  0
VERTEX
  8
0
 10
38.6376841333
 20
-48.6650453333
 30
0.0
  0
VERTEX
  8
0
 10
38.6447396889
 20
-49.0109086667
 30
0.0
  0
VERTEX
  8
0
 10
38.7149960889
 20
-49.245647
 30
0.0
  0
VERTEX
  8
0
 10
38.8329000667
 20
-49.3494116444
 30
0.0
  0
VERTEX
  8
0
 10
38.8733481556
 20
-49.4301046222
 30
0.0
  0
VERTEX
  8
0
 10
38.7292454889
 20
-49.5990118
 30
0.0
  0
VERTEX
  8
0
 10
38.4854167778
 20
-49.8231385778
 30
0.0
  0
VERTEX
  8
0
 10
38.3645833333
 20
-49.9646419778
 30
0.0
  0
VERTEX
  8
0
 10
38.3214569556
 20
-49.9854135333
 30
0.0
  0
VERTEX
  8
0
 10
38.2833767111
 20
-50.0061850889
 30
0.0
  0
VERTEX
  8
0
 10
38.1912255111
 20
-50.100357
 30
0.0
  0
VERTEX
  8
0
 10
38.0488528667
 20
-50.2319769778
 30
0.0
  0
VERTEX
  8
0
 10
37.8627273111
 20
-50.4237752
 30
0.0
  0
VERTEX
  8
0
 10
37.8485879778
 20
-50.5033816222
 30
0.0
  0
VERTEX
  8
0
 10
37.7305626444
 20
-50.6241529778
 30
0.0
  0
VERTEX
  8
0
 10
37.6192288
 20
-50.6993087556
 30
0.0
  0
VERTEX
  8
0
 10
37.5623328
 20
-50.7419807556
 30
0.0
  0
VERTEX
  8
0
 10
37.5141320667
 20
-50.7056446444
 30
0.0
  0
VERTEX
  8
0
 10
37.4918929556
 20
-50.5002969333
 30
0.0
  0
VERTEX
  8
0
 10
37.4641787333
 20
-50.2037858
 30
0.0
  0
VERTEX
  8
0
 10
37.3962337333
 20
-50.0671817778
 30
0.0
  0
VERTEX
  8
0
 10
37.1825237778
 20
-49.8013877111
 30
0.0
  0
VERTEX
  8
0
 10
37.072316
 20
-49.8022343778
 30
0.0
  0
VERTEX
  8
0
 10
36.9974763111
 20
-49.8908719111
 30
0.0
  0
VERTEX
  8
0
 10
36.9218887333
 20
-49.9623926667
 30
0.0
  0
VERTEX
  8
0
 10
36.8326528889
 20
-49.9425242222
 30
0.0
  0
VERTEX
  8
0
 10
36.6432225111
 20
-49.8647268444
 30
0.0
  0
VERTEX
  8
0
 10
36.5223806
 20
-49.8062899111
 30
0.0
  0
VERTEX
  8
0
 10
36.3972348
 20
-49.7342018889
 30
0.0
  0
VERTEX
  8
0
 10
36.1672998889
 20
-49.5182821333
 30
0.0
  0
VERTEX
  8
0
 10
36.1086823333
 20
-49.3801625778
 30
0.0
  0
VERTEX
  8
0
 10
35.9230280889
 20
-49.0305852
 30
0.0
  0
VERTEX
  8
0
 10
35.8936402889
 20
-48.9828360222
 30
0.0
  0
VERTEX
  8
0
 10
35.8326153778
 20
-48.9013076667
 30
0.0
  0
VERTEX
  8
0
 10
35.7574878222
 20
-48.7393798444
 30
0.0
  0
VERTEX
  8
0
 10
35.8790070667
 20
-48.6181964444
 30
0.0
  0
VERTEX
  8
0
 10
36.041838
 20
-48.4041167778
 30
0.0
  0
VERTEX
  8
0
 10
36.0569651111
 20
-48.2689097556
 30
0.0
  0
VERTEX
  8
0
 10
36.0473695556
 20
-48.0887475556
 30
0.0
  0
VERTEX
  8
0
 10
36.0036533333
 20
-47.8125225556
 30
0.0
  0
VERTEX
  8
0
 10
35.9887237778
 20
-47.7721506667
 30
0.0
  0
VERTEX
  8
0
 10
35.920172
 20
-47.6053799111
 30
0.0
  0
VERTEX
  8
0
 10
35.8826138667
 20
-47.4965380889
 30
0.0
  0
VERTEX
  8
0
 10
35.7737494667
 20
-47.3630244
 30
0.0
  0
VERTEX
  8
0
 10
35.6134274889
 20
-47.3159864222
 30
0.0
  0
VERTEX
  8
0
 10
35.5097785556
 20
-47.1098936444
 30
0.0
  0
VERTEX
  8
0
 10
35.4052236889
 20
-46.8908355778
 30
0.0
  0
VERTEX
  8
0
 10
35.3552223778
 20
-46.8170880889
 30
0.0
  0
VERTEX
  8
0
 10
35.1773744
 20
-46.5997177111
 30
0.0
  0
VERTEX
  8
0
 10
34.9011663333
 20
-46.3774902889
 30
0.0
  0
VERTEX
  8
0
 10
34.7993631333
 20
-46.3496631778
 30
0.0
  0
VERTEX
  8
0
 10
34.6784393778
 20
-46.3328709556
 30
0.0
  0
VERTEX
  8
0
 10
34.4860174444
 20
-46.3206225111
 30
0.0
  0
VERTEX
  8
0
 10
34.2952719111
 20
-46.3586999333
 30
0.0
  0
VERTEX
  8
0
 10
34.17443
 20
-46.4321002889
 30
0.0
  0
VERTEX
  8
0
 10
33.7647872667
 20
-46.5645330667
 30
0.0
  0
VERTEX
  8
0
 10
33.6898036444
 20
-46.5702339556
 30
0.0
  0
VERTEX
  8
0
 10
33.6492003333
 20
-46.5303164444
 30
0.0
  0
VERTEX
  8
0
 10
33.4471630889
 20
-46.4337061333
 30
0.0
  0
VERTEX
  8
0
 10
33.3588755111
 20
-46.4432734667
 30
0.0
  0
VERTEX
  8
0
 10
33.3082392
 20
-46.5686619778
 30
0.0
  0
VERTEX
  8
0
 10
33.2250852444
 20
-46.6079247333
 30
0.0
  0
VERTEX
  8
0
 10
33.1313338444
 20
-46.5900600667
 30
0.0
  0
VERTEX
  8
0
 10
32.9777908444
 20
-46.6790870667
 30
0.0
  0
VERTEX
  8
0
 10
32.8652773111
 20
-46.7882082889
 30
0.0
  0
VERTEX
  8
0
 10
32.8148018667
 20
-46.8670188444
 30
0.0
  0
VERTEX
  8
0
 10
32.7741618667
 20
-46.9433571333
 30
0.0
  0
VERTEX
  8
0
 10
32.6518806222
 20
-47.1508892444
 30
0.0
  0
VERTEX
  8
0
 10
32.5893401778
 20
-47.1377941333
 30
0.0
  0
VERTEX
  8
0
 10
32.4664690889
 20
-47.0116605556
 30
0.0
  0
VERTEX
  8
0
 10
32.4003867556
 20
-47.1204967333
 30
0.0
  0
VERTEX
  8
0
 10
32.4147236444
 20
-47.2189894667
 30
0.0
  0
VERTEX
  8
0
 10
32.3637063333
 20
-47.3623160222
 30
0.0
  0
VERTEX
  8
0
 10
32.3108066
 20
-47.4352168444
 30
0.0
  0
VERTEX
  8
0
 10
32.2938450444
 20
-47.4792632667
 30
0.0
  0
VERTEX
  8
0
 10
32.2479387778
 20
-47.6894256889
 30
0.0
  0
VERTEX
  8
0
 10
32.2251634444
 20
-47.8312818667
 30
0.0
  0
VERTEX
  8
0
 10
32.1903598
 20
-47.9889029778
 30
0.0
  0
VERTEX
  8
0
 10
32.1486388889
 20
-48.1097448889
 30
0.0
  0
VERTEX
  8
0
 10
32.0651406222
 20
-48.2960426
 30
0.0
  0
VERTEX
  8
0
 10
31.9817496
 20
-48.432339
 30
0.0
  0
VERTEX
  8
0
 10
31.8520459111
 20
-48.7722192222
 30
0.0
  0
VERTEX
  8
0
 10
31.7956268667
 20
-49.0997550444
 30
0.0
  0
VERTEX
  8
0
 10
31.7759559778
 20
-49.1545513111
 30
0.0
  0
VERTEX
  8
0
 10
31.8040935333
 20
-49.2307456667
 30
0.0
  0
VERTEX
  8
0
 10
31.9480776667
 20
-49.4272033778
 30
0.0
  0
VERTEX
  8
0
 10
32.2195895556
 20
-49.6968215556
 30
0.0
  0
VERTEX
  8
0
 10
32.2701637778
 20
-49.7384860222
 30
0.0
  0
VERTEX
  8
0
 10
32.2718571111
 20
-49.8777175333
 30
0.0
  0
VERTEX
  8
0
 10
32.2807188889
 20
-50.0169490444
 30
0.0
  0
VERTEX
  8
0
 10
32.4070613111
 20
-50.1291098
 30
0.0
  0
VERTEX
  8
0
 10
32.4371320889
 20
-50.1897170222
 30
0.0
  0
VERTEX
  8
0
 10
32.4680692889
 20
-50.261266
 30
0.0
  0
VERTEX
  8
0
 10
32.5389973778
 20
-50.3210237333
 30
0.0
  0
VERTEX
  8
0
 10
32.6659550444
 20
-50.3881926222
 30
0.0
  0
VERTEX
  8
0
 10
32.8603525333
 20
-50.4665121111
 30
0.0
  0
VERTEX
  8
0
 10
33.0121372889
 20
-50.4953495778
 30
0.0
  0
VERTEX
  8
0
 10
33.1275379556
 20
-50.5823502222
 30
0.0
  0
VERTEX
  8
0
 10
33.2891581556
 20
-50.7420005111
 30
0.0
  0
VERTEX
  8
0
 10
33.3750722444
 20
-50.7630260667
 30
0.0
  0
VERTEX
  8
0
 10
33.4902979333
 20
-50.7841362889
 30
0.0
  0
VERTEX
  8
0
 10
33.7039937778
 20
-50.8674341778
 30
0.0
  0
VERTEX
  8
0
 10
33.9775122667
 20
-50.9260065778
 30
0.0
  0
VERTEX
  8
0
 10
34.0492842
 20
-50.9102585778
 30
0.0
  0
VERTEX
  8
0
 10
34.0873842
 20
-50.8939179111
 30
0.0
  0
VERTEX
  8
0
 10
34.2529978444
 20
-50.8884992444
 30
0.0
  0
VERTEX
  8
0
 10
34.3512563333
 20
-50.9481102222
 30
0.0
  0
VERTEX
  8
0
 10
34.5426425111
 20
-51.0152762889
 30
0.0
  0
VERTEX
  8
0
 10
34.7665717333
 20
-51.0690791333
 30
0.0
  0
VERTEX
  8
0
 10
34.8604049778
 20
-51.1208048222
 30
0.0
  0
VERTEX
  8
0
 10
35.0825195111
 20
-51.3395863111
 30
0.0
  0
VERTEX
  8
0
 10
35.1271811778
 20
-51.4134354
 30
0.0
  0
VERTEX
  8
0
 10
35.1468238444
 20
-51.4472569111
 30
0.0
  0
VERTEX
  8
0
 10
35.1976859333
 20
-51.6480495556
 30
0.0
  0
VERTEX
  8
0
 10
35.1696612667
 20
-51.7643505111
 30
0.0
  0
VERTEX
  8
0
 10
35.1444306
 20
-51.8303030222
 30
0.0
  0
VERTEX
  8
0
 10
35.3140461556
 20
-52.0115771778
 30
0.0
  0
VERTEX
  8
0
 10
35.5157729556
 20
-52.2812884889
 30
0.0
  0
VERTEX
  8
0
 10
35.6369958667
 20
-52.3390734889
 30
0.0
  0
VERTEX
  8
0
 10
35.8263528667
 20
-52.4509576667
 30
0.0
  0
VERTEX
  8
0
 10
35.9457018222
 20
-52.6611511333
 30
0.0
  0
VERTEX
  8
0
 10
35.9678844889
 20
-52.7294545556
 30
0.0
  0
VERTEX
  8
0
 10
35.9836607111
 20
-52.7843919333
 30
0.0
  0
VERTEX
  8
0
 10
35.9835986222
 20
-52.8646277111
 30
0.0
  0
VERTEX
  8
0
 10
35.9678506222
 20
-52.9546763556
 30
0.0
  0
VERTEX
  8
0
 10
36.0314860889
 20
-53.1437991111
 30
0.0
  0
VERTEX
  8
0
 10
36.0729219556
 20
-53.2428901556
 30
0.0
  0
VERTEX
  8
0
 10
36.2443183333
 20
-53.4505972444
 30
0.0
  0
VERTEX
  8
0
 10
36.3684791778
 20
-53.5589536444
 30
0.0
  0
VERTEX
  8
0
 10
36.4529087778
 20
-53.6388789778
 30
0.0
  0
VERTEX
  8
0
 10
36.4940624222
 20
-53.6589732
 30
0.0
  0
VERTEX
  8
0
 10
36.5565774667
 20
-54.0678059556
 30
0.0
  0
VERTEX
  8
0
 10
36.618545
 20
-54.3883003333
 30
0.0
  0
VERTEX
  8
0
 10
36.6615584889
 20
-54.5354114889
 30
0.0
  0
VERTEX
  8
0
 10
36.7406540889
 20
-54.7613332
 30
0.0
  0
VERTEX
  8
0
 10
36.7714784
 20
-54.8584797333
 30
0.0
  0
VERTEX
  8
0
 10
36.7871981778
 20
-54.9082750222
 30
0.0
  0
VERTEX
  8
0
 10
36.8028897333
 20
-54.9522960444
 30
0.0
  0
VERTEX
  8
0
 10
36.9243807556
 20
-55.3083673556
 30
0.0
  0
VERTEX
  8
0
 10
36.9450958667
 20
-55.3687600889
 30
0.0
  0
VERTEX
  8
0
 10
37.0272027778
 20
-55.5572139778
 30
0.0
  0
VERTEX
  8
0
 10
37.1339618
 20
-55.7963719111
 30
0.0
  0
VERTEX
  8
0
 10
37.1718586
 20
-55.8804346222
 30
0.0
  0
VERTEX
  8
0
 10
37.2120075333
 20
-55.9678388444
 30
0.0
  0
VERTEX
  8
0
 10
37.2601320667
 20
-56.0664529333
 30
0.0
  0
VERTEX
  8
0
 10
37.2813551778
 20
-56.1063591556
 30
0.0
  0
VERTEX
  8
0
 10
37.3023807333
 20
-56.1460029111
 30
0.0
  0
VERTEX
  8
0
 10
37.3234062889
 20
-56.1874105556
 30
0.0
  0
VERTEX
  8
0
 10
37.4413610667
 20
-56.3058789778
 30
0.0
  0
VERTEX
  8
0
 10
37.5361933778
 20
-56.3953914
 30
0.0
  0
VERTEX
  8
0
 10
37.5650929333
 20
-56.5414244667
 30
0.0
  0
VERTEX
  8
0
 10
37.5650929333
 20
-56.6312106444
 30
0.0
  0
VERTEX
  8
0
 10
37.6228892222
 20
-56.7171811778
 30
0.0
  0
VERTEX
  8
0
 10
37.7401807778
 20
-57.0258081111
 30
0.0
  0
VERTEX
  8
0
 10
37.7585252222
 20
-57.1176347556
 30
0.0
  0
VERTEX
  8
0
 10
38.1799422667
 20
-57.6537751333
 30
0.0
  0
VERTEX
  8
0
 10
38.2375889778
 20
-57.7513139556
 30
0.0
  0
VERTEX
  8
0
 10
38.3254786222
 20
-57.9257668
 30
0.0
  0
VERTEX
  8
0
 10
38.519862
 20
-58.0834358889
 30
0.0
  0
VERTEX
  8
0
 10
38.6782451111
 20
-58.1743396667
 30
0.0
  0
VERTEX
  8
0
 10
38.7524808444
 20
-58.2335442444
 30
0.0
  0
VERTEX
  8
0
 10
38.899592
 20
-58.3399533111
 30
0.0
  0
VERTEX
  8
0
 10
39.2949006667
 20
-58.3701595556
 30
0.0
  0
VERTEX
  8
0
 10
39.4170944222
 20
-58.4045398667
 30
0.0
  0
VERTEX
  8
0
 10
39.5319673333
 20
-58.4719994444
 30
0.0
  0
VERTEX
  8
0
 10
39.5529928889
 20
-58.5389792444
 30
0.0
  0
VERTEX
  8
0
 10
39.5931305333
 20
-58.5883850667
 30
0.0
  0
VERTEX
  8
0
 10
39.6877003778
 20
-58.5673595111
 30
0.0
  0
SEQEND
  8
0
  0
ENDSEC
  0
EOF
